# xmcd CD database file
# Copyright (C) 1993-1996 Ti Kan
#
# Track frame offsets:
#	150
#	18352
#	37867
#	56970
#	72575
#	94120
#	116542
#	132230
#	147460
#	166782
#	184631
#	202278
#	222796
#	247318
#	267161
#	289116
#
# Disc length: 4107 seconds
#
# Revision: 1
# Processed by: cddbd v1.4b41PL1 Copyright (c) Steve Scherf et al.
# Submitted via: CDValet v3.01 - Copyright (c) 1997 Greg Leichner
#
DISCID=fa100910
DTITLE=王菲 - 一直了不起王菲精選
DYEAR=1900
DGENRE=
TTITLE0=麻醉
TTITLE1=你快樂
TTITLE2=悶
TTITLE3=娛樂場
TTITLE4=
TTITLE5=
TTITLE6=
TTITLE7=
TTITLE8=
TTITLE9=
TTITLE10=
TTITLE11=
TTITLE12=
TTITLE13=
TTITLE14=
TTITLE15=
EXTD=
EXTT0=
EXTT1=
EXTT2=
EXTT3=
EXTT4=
EXTT5=
EXTT6=
EXTT7=
EXTT8=
EXTT9=
EXTT10=
EXTT11=
EXTT12=
EXTT13=
EXTT14=
EXTT15=
PLAYORDER=
